{"title":"Night of the Demons 2009 DVDRiP XviD-QCF","uid":5878925,"size":742421092,"categoryP":"video","categoryS":"movies","magnet":"?xt=urn:btih:54442b7ad1008f867de55e7a90f941bbedb8bc1a&amp;dn=Night+of+the+Demons+2009+DVDRiP+XviD-QCF&amp;tr=udp%3A%2F%2Ftracker.openbittorrent.com%3A80&amp;tr=udp%3A%2F%2Fopen.demonii.com%3A1337&amp;tr=udp%3A%2F%2Ftracker.coppersurfer.tk%3A6969&amp;tr=udp%3A%2F%2Fexodus.desync.com%3A6969","seeders":2,"leechers":3,"uploader":"IwannaFan2","files":3,"time":1286763739,"description":"Filename:\nNight of the Demons 2009 DVDRiP XviD-QCF\n &lt;a href=&quot;\nhttp://www.imdb.com/title/tt1268809/&quot; rel=&quot;nofollow&quot; target=&quot;_NEW&quot;&gt;\nhttp://www.imdb.com/title/tt1268809/&lt;/a&gt;\n\nVideo\nID                               : 0\nFormat                           : MPEG-4 Visual\nFormat profile                   : AdvancedSimple@L5\nFormat settings, BVOP            : Yes\nFormat settings, QPel            : No\nFormat settings, GMC             : No warppoints\nFormat settings, Matrix          : Default (H.263)\nCodec ID                         : XVID\nCodec ID/Hint                    : XviD\nDuration                         : 1h 32mn\nBit rate                         : 917 Kbps\nWidth                            : 624 pixels\nHeight                           : 352 pixels\nDisplay aspect ratio             : 16:9\nFrame rate                       : 23.976 fps\nResolution                       : 24 bits\nColorimetry                      : 4:2:0\nScan type                        : Progressive\nBits/(Pixel*Frame)               : 0.174\nStream size                      : 608 MiB (87%)\nWriting library                  : XviD 1.2.1 (UTC 2008-12-04)\n\nAudio\nID                               : 1\nFormat                           : MPEG Audio\nFormat version                   : Version 1\nFormat profile                   : Layer 3\nFormat_Settings_Mode             : Joint stereo / MS Stereo\nCodec ID                         : 55\nCodec ID/Hint                    : MP3\nDuration                         : 1h 32mn\nBit rate mode                    : Variable\nBit rate                         : 128 Kbps\nNominal bit rate                 : 135 Kbps\nChannel(s)                       : 2 channels\nSampling rate                    : 48.0 KHz\nResolution                       : 16 bits\nStream size                      : 84.6 MiB (12%)\nAlignment                        : Aligned on interleaves\nInterleave, duration             : 24 ms (0.58 video frame)\nInterleave, preload duration     : 144 ms\nWriting library                  : LAME3.98r\nEncoding settings                : -m j -V 4 -q 3 -lowpass 17 --abr 135","torrent":{"xt":"urn:btih:54442b7ad1008f867de55e7a90f941bbedb8bc1a","amp;dn":"Night+of+the+Demons+2009+DVDRiP+XviD-QCF","amp;tr":["udp%3A%2F%2Ftracker.openbittorrent.com%3A80","udp%3A%2F%2Fopen.demonii.com%3A1337","udp%3A%2F%2Ftracker.coppersurfer.tk%3A6969","udp%3A%2F%2Fexodus.desync.com%3A6969"],"infoHash":"54442b7ad1008f867de55e7a90f941bbedb8bc1a","infoHashBuffer":{"type":"Buffer","data":[84,68,43,122,209,0,143,134,125,229,94,122,144,249,65,187,237,184,188,26]},"announce":[],"urlList":[]}}